<svg enable-background="new 0 0 24 24" height="24" viewBox="0 0 24 24" width="24" xmlns="http://www.w3.org/2000/svg"><path d="m0 0h24v24h-24z" fill="none"/><path d="m23 11.99-2.44-2.79.34-3.69-3.61-.82-1.89-3.19-3.4 1.46-3.4-1.46-1.89 3.19-3.61.81.34 3.7-2.44 2.79 2.44 2.79-.34 3.7 3.61.82 1.89 3.2 3.4-1.47 3.4 1.46 1.89-3.19 3.61-.82-.34-3.69zm-3.95 1.48-.56.65.08.85.18 1.95-1.9.43-.84.19-.44.74-.99 1.68-1.78-.77-.8-.34-.79.34-1.78.77-.99-1.67-.44-.74-.84-.19-1.9-.43.18-1.96.08-.85-.56-.65-1.29-1.47 1.29-1.48.56-.65-.09-.86-.18-1.94 1.9-.43.84-.19.44-.74.99-1.68 1.78.77.8.34.79-.34 1.78-.77.99 1.68.44.74.84.19 1.9.43-.18 1.95-.08.85.56.65 1.29 1.47z"/><path d="m10.09 13.75-2.32-2.33-1.48 1.49 3.8 3.81 7.34-7.36-1.48-1.49z"/></svg>