<svg width="80" height="100" viewBox="0 0 36 36" fill="none" xmlns="http://www.w3.org/2000/svg"><path d="M23.965 35H2.337A1.337 1.337 0 011 33.663V5.807c0-.742.603-1.337 1.337-1.337h21.628c.742 0 1.337.602 1.337 1.337v27.856c0 .734-.595 1.337-1.337 1.337z" fill="#276EF1"></path><path d="M2.67 33.33V6.13H23.64v27.2H2.669z" fill="#fff"></path><path d="M19.043 4.43v2.96H7.53V4.43h1.136c.548 0 1.004-.385 1.15-.91A3.472 3.472 0 0113.156 1a3.48 3.48 0 013.338 2.52c.147.525.603.91 1.152.91h1.398z" fill="#000"></path><path d="M13.155 4.431a.78.78 0 100-1.56.78.78 0 000 1.56z" fill="#fff"></path><path d="M6.13 19.041l-1.093 1.093 6.655 6.655 1.093-1.093-6.655-6.655z" fill="#276EF1"></path><path d="M11.692 19.041l-6.655 6.655L6.13 26.79l6.655-6.655-1.093-1.093z" fill="#276EF1"></path><path d="M14.492 26.77h9.149v-4.767l-3.222 3.215-5.927 1.553z" fill="#9FBFF8"></path><path d="M25.302 20.334l-1.661 1.669v4.767h1.661v-6.436z" fill="#000"></path><path d="M28.218 8.703L16.056 20.866l2.906 2.907L31.125 11.61l-2.907-2.907z" fill="#9FBFF8"></path><path d="M31.12 11.608L18.957 23.77l1.454 1.454L32.573 13.06l-1.453-1.453z" fill="#276EF1"></path><path d="M20.45 25.186l-4.359-4.358-.803 2.975 2.186 2.18 2.976-.797z" fill="#fff"></path><path d="M17.474 25.982l-2.186-2.179-.796 2.983 2.982-.804zM34.614 9.176l-2.512-2.512a1.306 1.306 0 00-1.847 0l-2.032 2.033 4.366 4.365 2.032-2.032a1.322 1.322 0 00-.007-1.854z" fill="#000"></path></svg>