<svg height="150" width="150" viewBox="0 0 3014 2512" xmlns="http://www.w3.org/2000/svg"><path d="M0 2216q0-17 2-45.5t21.5-91.5q19.5-63 53.5-98 34-34 132.5-74.5T432 1821q124-45 183-75 73-37 113.5-110.5T769 1484q0-54-63-125-36-40-64-119-89-37-89-151 0-83 29-120-12-77-20-164-2-16-4.5-42.5t5.5-91q8-64.5 32-108.5 38-67 96-92.5t96-9.5l2-1q2-10 9-26.5t29-44q22-27.5 51-42.5 16-8 52.5-12.5t87.5-1q51 3.5 106.5 15.5t111 43.5Q1291 424 1335 470t72 121.5q28 75.5 30 171.5 0 13-2 41-10 113-17 164 28 35 28 120 0 110-89 150-30 77-66 119-62 70-62 127 0 77 40.5 151t113.5 110q59 30 183.5 75t222.5 85.5q98 40.5 132 74.5 22 22 38 54.5t23.5 63q7.5 30.5 11.5 58t6 43.5l1 17H0zM1711 771V595h263V332h177v263h262v176h-262v263h-177V771h-263z"/></svg>